<?xml version="1.0" standalone="no"?>
<!DOCTYPE svg PUBLIC "-//W3C//DTD SVG 20010904//EN"
 "http://www.w3.org/TR/2001/REC-SVG-20010904/DTD/svg10.dtd">
<svg version="1.0" xmlns="http://www.w3.org/2000/svg"
 width="100.000000pt" height="100.000000pt" viewBox="0 0 100.000000 100.000000"
 preserveAspectRatio="xMidYMid meet">

<g transform="translate(0.000000,100.000000) scale(0.100000,-0.100000)"
fill="#000000" stroke="none">
<path d="M91 883 c-5 -21 -15 -57 -21 -80 -9 -36 -6 -60 19 -172 l30 -129 -30
-90 -30 -91 31 -100 c17 -56 32 -101 33 -101 1 0 45 11 97 25 l95 24 52 -34
c49 -33 58 -35 133 -35 75 0 85 3 134 34 l54 34 93 -23 c51 -13 95 -22 97 -20
3 2 17 47 33 99 l28 95 -30 90 -31 91 31 130 31 131 -19 75 c-11 42 -21 78
-23 80 -3 2 -71 -19 -153 -46 -138 -46 -156 -50 -246 -50 -91 0 -108 4 -245
50 -81 28 -149 50 -150 50 -2 0 -8 -17 -13 -37z m172 -130 c64 -51 117 -97
117 -101 0 -5 -15 -25 -32 -45 -26 -28 -49 -40 -111 -58 -42 -12 -79 -20 -81
-18 -2 2 -15 54 -30 116 -23 99 -24 118 -14 162 7 31 15 48 22 44 6 -4 64 -49
129 -100z m625 50 c9 -39 6 -65 -15 -158 -15 -60 -28 -112 -29 -114 -2 -2 -40
7 -85 20 -68 19 -85 29 -110 60 -16 20 -29 39 -29 42 0 8 241 197 250 197 5 0
13 -21 18 -47z m-568 2 c60 -21 93 -25 180 -25 87 0 120 4 180 25 40 14 78 25
83 25 5 0 -38 -38 -96 -83 l-106 -84 44 -60 c44 -59 48 -61 133 -88 48 -15 92
-31 99 -37 7 -5 20 -33 29 -61 9 -29 19 -58 22 -64 3 -10 -25 -13 -123 -13
l-127 0 6 -28 c21 -110 21 -107 -28 -141 -39 -27 -53 -31 -113 -31 -60 0 -76
4 -117 30 -52 33 -51 30 -30 142 l6 28 -127 0 -126 0 7 23 c33 104 42 121 65
128 13 5 57 18 97 30 68 20 75 25 119 81 39 51 44 63 32 72 -70 53 -189 148
-189 152 0 6 1 6 80 -21z m-10 -529 c0 -57 -15 -72 -86 -90 -37 -9 -70 -13
-74 -9 -8 9 -40 101 -40 115 0 4 45 8 100 8 99 0 100 0 100 -24z m574 -3 c-14
-55 -31 -98 -40 -98 -5 0 -38 6 -72 14 -67 15 -82 31 -82 87 0 24 1 24 100 24
l100 0 -6 -27z"/>
<path d="M370 421 l-24 -19 43 -12 c24 -6 45 -10 47 -8 2 2 -7 16 -19 31 -22
27 -22 27 -47 8z"/>
<path d="M579 409 l-21 -30 38 7 c53 9 60 18 30 37 -24 16 -26 16 -47 -14z"/>
<path d="M447 274 c-4 -4 -7 -22 -7 -41 l0 -33 61 0 60 0 -3 38 -3 37 -50 3
c-28 2 -54 0 -58 -4z"/>
</g>
</svg>
